<svg width="52" height="47" viewBox="0 0 52 47" fill="none" xmlns="http://www.w3.org/2000/svg">
<path d="M0.333252 47H9.66658V19H0.333252V47ZM51.6666 21.3334C51.6666 18.7667 49.5666 16.6667 46.9999 16.6667H32.2766L34.4933 6.00337L34.5633 5.25671C34.5633 4.30004 34.1666 3.41337 33.5366 2.78337L31.0633 0.333374L15.7099 15.71C14.8466 16.55 14.3333 17.7167 14.3333 19V42.3334C14.3333 44.9 16.4333 47 18.9999 47H39.9999C41.9366 47 43.5933 45.8334 44.2933 44.1534L51.3399 27.7034C51.5499 27.1667 51.6666 26.6067 51.6666 26V21.3334Z" fill="#70AC8C"/>
</svg>
