<svg width="16" height="15" viewBox="0 0 16 15" fill="none" xmlns="http://www.w3.org/2000/svg">
<path d="M11.3751 0.25C10.0701 0.25 8.81756 0.8575 8.00006 1.8175C7.18256 0.8575 5.93006 0.25 4.62506 0.25C2.31506 0.25 0.500061 2.065 0.500061 4.375C0.500061 7.21 3.05006 9.52 6.91256 13.03L8.00006 14.0125L9.08756 13.0225C12.9501 9.52 15.5001 7.21 15.5001 4.375C15.5001 2.065 13.6851 0.25 11.3751 0.25ZM8.07506 11.9125L8.00006 11.9875L7.92506 11.9125C4.35506 8.68 2.00006 6.5425 2.00006 4.375C2.00006 2.875 3.12506 1.75 4.62506 1.75C5.78006 1.75 6.90506 2.4925 7.30256 3.52H8.70506C9.09506 2.4925 10.2201 1.75 11.3751 1.75C12.8751 1.75 14.0001 2.875 14.0001 4.375C14.0001 6.5425 11.6451 8.68 8.07506 11.9125Z" fill="#9B9B9B"/>
</svg>
