<svg width="28" height="28" viewBox="0 0 28 28" fill="none" xmlns="http://www.w3.org/2000/svg">
<path d="M15.3327 7.33333H12.666V12.6667H7.33268V15.3333H12.666V20.6667H15.3327V15.3333H20.666V12.6667H15.3327V7.33333ZM13.9993 0.666664C6.63935 0.666664 0.666016 6.64 0.666016 14C0.666016 21.36 6.63935 27.3333 13.9993 27.3333C21.3594 27.3333 27.3327 21.36 27.3327 14C27.3327 6.64 21.3594 0.666664 13.9993 0.666664ZM13.9993 24.6667C8.11935 24.6667 3.33268 19.88 3.33268 14C3.33268 8.12 8.11935 3.33333 13.9993 3.33333C19.8793 3.33333 24.666 8.12 24.666 14C24.666 19.88 19.8793 24.6667 13.9993 24.6667Z" fill="#70AC8C"/>
</svg>
