<svg width="14" height="13" viewBox="0 0 14 13" fill="none" xmlns="http://www.w3.org/2000/svg">
<path d="M10.0002 0C8.84016 0 7.72683 0.54 7.00016 1.39333C6.2735 0.54 5.16016 0 4.00016 0C1.94683 0 0.333496 1.61333 0.333496 3.66667C0.333496 6.18667 2.60016 8.24 6.0335 11.36L7.00016 12.2333L7.96683 11.3533C11.4002 8.24 13.6668 6.18667 13.6668 3.66667C13.6668 1.61333 12.0535 0 10.0002 0ZM7.06683 10.3667L7.00016 10.4333L6.9335 10.3667C3.76016 7.49333 1.66683 5.59333 1.66683 3.66667C1.66683 2.33333 2.66683 1.33333 4.00016 1.33333C5.02683 1.33333 6.02683 1.99333 6.38016 2.90667H7.62683C7.9735 1.99333 8.9735 1.33333 10.0002 1.33333C11.3335 1.33333 12.3335 2.33333 12.3335 3.66667C12.3335 5.59333 10.2402 7.49333 7.06683 10.3667Z" fill="#70AC8C"/>
</svg>
