<svg width="22" height="16" viewBox="0 0 22 16" fill="none" xmlns="http://www.w3.org/2000/svg">
<path d="M18.3334 4.33333H15.5834V0.666666H2.75008C1.74175 0.666666 0.916748 1.49167 0.916748 2.5V12.5833H2.75008C2.75008 14.105 3.97841 15.3333 5.50008 15.3333C7.02175 15.3333 8.25008 14.105 8.25008 12.5833H13.7501C13.7501 14.105 14.9784 15.3333 16.5001 15.3333C18.0217 15.3333 19.2501 14.105 19.2501 12.5833H21.0834V8L18.3334 4.33333ZM5.50008 13.9583C4.73925 13.9583 4.12508 13.3442 4.12508 12.5833C4.12508 11.8225 4.73925 11.2083 5.50008 11.2083C6.26091 11.2083 6.87508 11.8225 6.87508 12.5833C6.87508 13.3442 6.26091 13.9583 5.50008 13.9583ZM17.8751 5.70833L19.6717 8H15.5834V5.70833H17.8751ZM16.5001 13.9583C15.7392 13.9583 15.1251 13.3442 15.1251 12.5833C15.1251 11.8225 15.7392 11.2083 16.5001 11.2083C17.2609 11.2083 17.8751 11.8225 17.8751 12.5833C17.8751 13.3442 17.2609 13.9583 16.5001 13.9583Z" fill="#59605F"/>
</svg>
